<?xml version="1.0" encoding="utf-8"?>
<!-- Generator: Adobe Illustrator 18.1.1, SVG Export Plug-In . SVG Version: 6.00 Build 0)  -->
<svg version="1.1" id="Layer_1" xmlns="http://www.w3.org/2000/svg" xmlns:xlink="http://www.w3.org/1999/xlink" x="0px" y="0px"
	 viewBox="0 0 128 64" enable-background="new 0 0 128 64" xml:space="preserve">
<g>
	<path fill="#D91E2A" d="M65.8,24.9c10,0.4,10.5,1,13.1,2.1c-8.8,1.7-24.4,3.5-39.9,2c-2.6-0.3-9.3-1.6-12.4-3.3
		c-1.3-0.7-4.3-2.4-4.1-5.6c0.2-3.1,4.6-6.4,6.3-7.4C41,5.6,53.9,3.2,67.6,1C57.2,2.3,50,3.8,43.5,5.4C27.1,9.6,10.1,17.1,3.9,24.9
		c-2.6,3.3-3.9,7-2.1,10.5c3.2,6.1,12.6,9.1,23,10.6c-3.5-1.1-7.8-2.2-9.7-4.8c-0.6-0.9-0.9-2.8,1.2-4.6c5.2-4.2,9.3-5.7,9.3-5.7
		L36,33.3l-1.9,1.4c-0.9,0.6-1.3,1.5-0.9,2.5c1.1,1.5,2.5,2.1,3.7,2.7c12.3,5,35.3,0.6,42.8-4.9c2.1-1.5,4.2-2.9,4.4-5.6
		c0.1-1.5-1.2-2.7-1.9-3.3c-4.3-3.1-11.6-3.4-16.5-3.5c-9-0.2-11.2-1.2-13.7-2.7c16.5-3,31.8-3.7,46.6-0.7c3.5,0.9,7.9,2.4,9.4,5.3
		c1.1,2.2,0.1,4.7-2,6.8c-4.7,4.5-12.8,7.4-18.1,9.3c10.9-3.5,17.6-5.4,27.8-11.5c5.3-3.2,12.6-9.4,11.2-15.8
		c-1.8-7.8-16-10.8-16-10.8s3.2,1.1,4.7,3c1.4,1.7,1.4,3.1,1.2,3.7c-1.3,4.7-7.4,5.3-11.5,6.8l-11.4-1.7c0,0,2-1.1,3-1.7
		c1.1-0.8,1.8-1.9,1.3-3.2c-1-1.9-2.6-2.8-4.8-3.5c-12.4-3.7-28.4-1.6-39.5,4.8c-2.7,1.6-6.2,3.9-6.5,7.2c-0.1,1.5,1.1,3.3,2.9,4.3
		C55.9,25.1,60.5,24.8,65.8,24.9z"/>
	<circle fill="none" stroke="#000000" stroke-width="0.6" cx="124.5" cy="3.6" r="2.5"/>
	<path d="M123.4,5.1V2.2h1.3c0.3,0,0.4,0,0.6,0.1c0.1,0.1,0.2,0.1,0.3,0.3c0.1,0.1,0.1,0.3,0.1,0.4c0,0.2-0.1,0.4-0.2,0.5
		c-0.1,0.1-0.3,0.2-0.6,0.3c0.1,0,0.2,0.1,0.2,0.1c0.1,0.1,0.2,0.2,0.3,0.4l0.5,0.8h-0.5L125,4.5c-0.1-0.2-0.2-0.3-0.3-0.4
		c-0.1-0.1-0.1-0.2-0.2-0.2c-0.1,0-0.1-0.1-0.2-0.1c0,0-0.1,0-0.2,0h-0.4v1.3H123.4z M123.7,3.5h0.8c0.2,0,0.3,0,0.4-0.1
		c0.1,0,0.2-0.1,0.2-0.2c0.1-0.1,0.1-0.2,0.1-0.3c0-0.1,0-0.3-0.1-0.3c-0.1-0.1-0.3-0.1-0.5-0.1h-0.9V3.5z"/>
	<rect x="14" y="49" width="2" height="14"/>
	<polygon points="28,63 28,61 23,61 23,49 21,49 21,63 	"/>
	<rect x="31" y="49" width="2" height="14"/>
	<path d="M44,59v2h-4V51h4l0,1.6h2V51c0-1-1-2-2-2h-4c-1,0-2,1-2,2V61c0,1,1,2,2,2h4c1,0,2-1,2-2v-2H44z"/>
	<polygon points="64,54 68,63 70,63 70,49 68,49 68,58 64,49 62,49 62,63 64,63 	"/>
	<polygon points="92,63 92,61 87,61 87,49 85,49 85,63 	"/>
	<path d="M56,63c1,0,2-1,2-2V51c0-1-1-2-2-2h-4c-1,0-2,1-2,2V61c0,1,1,2,2,2H56z M56,61h-4V51h4V61z"/>
	<path d="M98.5,49l-4,14l2,0l0.9-3h4.2l0.8,3h2.1l-4-14H98.5z M99.5,52.3L101,58l-3.1,0L99.5,52.3z"/>
	<path d="M108,63h6c1,0,2-1,2-2v-3.5l-1.5-1.5l1.5-1.5V51c0-1-1-2-2-2h-6V63z M110,51h4v4h-4V51z M110,57h4v4h-4V57z"/>
	<path d="M3,52.1c0,1.1,0,1.2,0.8,1.6l3.9,1.9c1,0.5,1.3,1.1,1.4,1.9V61c0,1-1,2-2,2H3c-1,0-2-1-2-2v-2h2v2h4v-1.9
		c0-1.3,0-1.3-0.8-1.8l-3.1-1.6c-1.3-0.6-2-1.3-2.1-2.3V51c0-1,1-2,2-2l4,0c1.4,0,2,0.8,2,2l0,1.6H7L7,51H3L3,52.1z"/>
	<path d="M121,52.1c0,1.1,0,1.2,0.8,1.6l3.9,1.9c1,0.5,1.3,1.2,1.4,2V61c0,1-1,2-2,2h-4c-1,0-2-1-2-2v-2h2v2h4v-1.9
		c0-1.3,0-1.3-0.8-1.8l-3.1-1.6c-1.3-0.6-2-1.3-2.1-2.3V51c0-1,1-2,2-2h4c1.4,0,2,0.8,2,2v1.6h-2V51h-4V52.1z"/>
</g>
</svg>
